inDegrees=yes
name=ik_S50_A10_T02
DataType=double
version=3
OpenSimVersion=4.3-2021-08-27-4bc7ad9
endheader
time	pelvis_tilt	pelvis_list	pelvis_rotation	pelvis_tx	pelvis_ty	pelvis_tz	hip_flexion_r	hip_adduction_r	hip_rotation_r	knee_angle_r	knee_angle_r_beta	ankle_angle_r	subtalar_angle_r	mtp_angle_r	hip_flexion_l	hip_adduction_l	hip_rotation_l	knee_angle_l	knee_angle_l_beta	ankle_angle_l	subtalar_angle_l	mtp_angle_l	lumbar_extension	lumbar_bending	lumbar_rotation	arm_flex_r	arm_add_r	arm_rot_r	elbow_flex_r	pro_sup_r	wrist_flex_r	wrist_dev_r	arm_flex_l	arm_add_l	arm_rot_l	elbow_flex_l	pro_sup_l	wrist_flex_l	wrist_dev_l
12.23999999999983	-1.735507400277301	-1.322059435917118	32.92725306481169	0	0.9399999999999999	0	44.12273801088464	-9.999318986399651	-9.990907196252818	53.27475426520796	0.9298198701187712	0	0	0	44.12273801088464	-9.999318986399651	-9.990907196252818	53.27475426520796	0.9298198701187712	0	0	0	-1.791291341332232	-0.671492067761135	0.5601161927747691	15.46634234740475	2.347867876718144	8.249358992002527	6.246608728338265	82.49747043015093	0	0	21.30414739929886	0.5006181189477856	11.39274159000702	19.82791631903924	87.51797946421368	0	0
12.25999999999983	-1.599128221567109	-1.227180988211639	32.8935195848882	0	0.9399999999999999	0	44.13010835834915	-9.999332914760886	-9.991043575916574	53.28737866183786	0.9300402074060407	0	0	0	44.13010835834915	-9.999332914760886	-9.991043575916574	53.28737866183786	0.9300402074060407	0	0	0	-1.628348546471251	-0.6602595949434026	0.5115800052456132	16.77610390717554	2.335683011766234	7.983689672518343	5.799173228947307	82.60965443582452	0	0	24.23521226852345	0.04080200278034542	11.13311866729853	19.57742790372562	87.21564392243157	0	0
12.27999999999983	-1.440389455969414	-1.123989988114094	32.84274254034653	0	0.9399999999999999	0	44.14062105210424	-9.999351982265777	-9.991233611910774	53.30566137101162	0.9303593008773073	0	0	0	44.14062105210424	-9.999351982265777	-9.991233611910774	53.30566137101162	0.9303593008773073	0	0	0	-1.442892558874706	-0.6564415413011963	0.4752138390844595	18.23453908896991	2.421547834205501	7.884508184486612	6.786772670329741	82.19500663498589	0	0	25.83948614972393	-0.3860728217550713	11.01069111499254	20.81919743268147	86.86983333821274	0	0
12.29999999999983	-1.278402817104389	-1.006561040526191	32.81284024920867	0	0.9399999999999999	0	44.15146150356814	-9.999371217441153	-9.991427196440959	53.32458499462106	0.9306895804157003	0	0	0	44.15146150356814	-9.999371217441153	-9.991427196440959	53.32458499462106	0.9306895804157003	0	0	0	-1.247259317601237	-0.6411764234338438	0.4357839267864743	20.00985381290713	2.448992297266373	7.826735141304379	7.97953108161509	81.31002217200226	0	0	27.61158153546374	-0.8037359481485578	10.78552698761971	22.1806471344004	86.44335907030352	0	0
12.31999999999983	-1.181195997032481	-0.9309697235343588	32.83529532040107	0	0.9399999999999999	0	44.16404682870566	-9.999393486661136	-9.991651739625659	53.34639553455357	0.9310702461491601	0	0	0	44.16404682870566	-9.999393486661136	-9.991651739625659	53.34639553455357	0.9310702461491601	0	0	0	-1.127978971226081	-0.6254459930789696	0.3646230673073962	22.10812034560479	2.430091388919672	7.932623307626101	9.91824646246099	79.77516177198648	0	0	29.92757385608518	-1.241887920461326	10.32723739595475	23.52012631426756	86.06912012881939	0	0
12.33999999999983	-1.000699146704548	-0.7875751316565182	32.79872602777758	0	0.9399999999999999	0	44.1730640137413	-9.999409365022254	-9.991812247233002	53.36193824487693	0.9313415176189866	0	0	0	44.1730640137413	-9.999409365022254	-9.991812247233002	53.36193824487693	0.9313415176189866	0	0	0	-0.9021866068506695	-0.5979294458889233	0.3084749133432901	24.37678779040511	2.312973179956581	7.648827902377875	9.406177537036617	79.45818225251148	0	0	32.21812458888328	-1.653157491821936	9.837523298508742	24.9788068457631	85.87265076457712	0	0
12.35999999999983	-0.8266001385142258	-0.6556451661637084	32.79986276210191	0	0.9399999999999999	0	44.1852985102752	-9.999430316983741	-9.992026693156044	53.38315995012627	0.9317119062484753	0	0	0	44.1852985102752	-9.999430316983741	-9.992026693156044	53.38315995012627	0.9317119062484753	0	0	0	-0.6871682470408598	-0.5751762434082289	0.2563329428959139	26.8511282782508	2.226561858392348	7.737908856852032	11.81350063432183	77.82306334487849	0	0	34.85035596339339	-2.047769497512	9.420741748231416	26.60257487438052	85.3950513968834	0	0
12.37999999999982	-0.4938658765139471	-0.4062738552609547	32.79626712856392	0	0.9399999999999999	0	44.20429055572669	-9.999461783264003	-9.992353396228083	53.41641356382954	0.9322922912957837	0	0	0	44.20429055572669	-9.999461783264003	-9.992353396228083	53.41641356382954	0.9322922912957837	0	0	0	-0.2787854466981621	-0.5367773322790197	0.2224829956234422	29.11832103743964	2.065525572554335	7.957807023085328	15.20607343315109	75.24887155072952	0	0	37.34120787232219	-2.429848850665298	9.066003836938355	28.42558253687448	84.49790195304455	0	0
12.39999999999982	-0.5427336910014972	-0.2978935900648114	32.96605593907668	0	0.9399999999999999	0	44.24650095434732	-9.999529492227779	-9.993068820888107	53.48946119252057	0.9335672129272163	0	0	0	44.24650095434732	-9.999529492227779	-9.993068820888107	53.48946119252057	0.9335672129272163	0	0	0	-0.1236718880845331	-0.6493472789353859	0.04897452685618278	32.32039012918523	0.9567401649358731	10.88404011827685	31.66300157608736	62.16585073462446	0	0	40.7457758937523	-2.837781678766221	8.856832526523197	30.40553134767493	83.58463109646459	0	0
12.41999999999982	-0.4046489531703564	-0.1981116577211121	32.75874736939134	0	0.9399999999999999	0	44.24776340860992	-9.999532250226098	-9.993094876436723	53.49115089044828	0.9335967037194192	0	0	0	44.24776340860992	-9.999532250226098	-9.993094876436723	53.49115089044828	0.9335967037194192	0	0	0	0.04348318792449506	-0.6385612402086687	0.2637765207471926	35.61705436106009	1.233323991490491	9.26586912935517	26.91018920765463	63.79060759369803	0	0	40.41031593079643	-2.822083619321288	8.852868142048818	30.38377484454443	83.61306042054646	0	0
12.43999999999982	-0.3507920321010218	-0.09425159165980647	32.87768953339465	0	0.9399999999999999	0	44.28425017441768	-9.999586953813262	-9.993691354878974	53.55426072868096	0.9346981781869803	0	0	0	44.28425017441768	-9.999586953813262	-9.993691354878974	53.55426072868096	0.9346981781869803	0	0	0	0.2026180717217732	-0.6869088030044551	0.1187608111140262	39.64337326164389	-1.267715143369062	12.19773793891295	44.90134019968591	47.61076649911124	0	0	43.83563454178785	-3.224388920427011	8.52347803008659	32.61420170184648	82.76541662483611	0	0
12.45999999999982	-0.1450100578823861	-0.06346634859259961	33.01691663666808	0	0.9399999999999999	0	44.30944394049175	-9.999621952302709	-9.99408638435164	53.59820095089174	0.9354650797386164	0	0	0	44.30944394049175	-9.999621952302709	-9.99408638435164	53.59820095089174	0.9354650797386164	0	0	0	0.3174535303396002	-0.5777348805864958	-0.05120144101162596	44.35590860435184	-4.448189376426282	14.36828283803851	59.7697200290003	32.37075841534978	0	0	51.80179742859431	-3.953738861035355	7.410786692322812	36.84160210572307	80.805505234254	0	0
12.47999999999982	-0.3637341609557969	0.09717223000362171	33.09766398505542	0	0.9399999999999999	0	44.32106844930179	-9.999637604995554	-9.99426516157901	53.61866375505667	0.9358222230454851	0	0	0	44.32106844930179	-9.999637604995554	-9.99426516157901	53.61866375505667	0.9358222230454851	0	0	0	0.4735755977631697	-0.8213141105678915	-0.1520686414426584	49.74395952013271	-7.830662587757068	15.97000417691539	74.06157459997326	17.27243832643831	0	0	56.0851464619195	-4.316960810873005	6.814437530715753	38.90210402283348	79.91059719832718	0	0
12.49999999999982	-0.387751401939705	0.1549720462532074	33.08551318792058	0	0.9399999999999999	0	44.32554014464856	-9.999644116821139	-9.994337146138713	53.62624225354678	0.935954492796495	0	0	0	44.32554014464856	-9.999644116821139	-9.994337146138713	53.62624225354678	0.935954492796495	0	0	0	0.5239613882318601	-0.871836479864056	-0.1781091446912164	54.97276804414772	-10.2781448929569	16.73422513838327	84.33387408555032	5.899439292397308	0	0	60.27939621594704	-4.630658943788746	6.361746056373069	41.16390861997076	78.85409918052926	0	0
12.51999999999982	-0.405500227623993	0.1769433089046028	33.07602824324249	0	0.9399999999999999	0	44.32753124956801	-9.999647451695759	-9.994372074087481	53.62937905207555	0.9360092402587938	0	0	0	44.32753124956801	-9.999647451695759	-9.994372074087481	53.62937905207555	0.9360092402587938	0	0	0	0.5409863769119495	-0.8753264197747433	-0.1865578347570523	59.76234112876104	-11.46799316566082	17.13675255530766	90.46280298160896	-1.339801157712098	0	0	64.52347291545318	-4.643799459897722	6.159500605907895	43.17683639718472	77.68827226029165	0	0
12.53999999999982	-0.4466379367296884	0.2004751388086975	32.96455665117114	0	0.9399999999999999	0	44.33266290009833	-9.999653931250318	-9.994448374569012	53.63846774694367	0.9361678679089516	0	0	0	44.33266290009833	-9.999653931250318	-9.994448374569012	53.63846774694367	0.9361678679089516	0	0	0	0.5289553370127572	-0.8608694903079924	-0.1521958704410409	60.30143953614968	-12.44814273604321	16.4481398939405	95.98895775687554	-3.889076619656294	0	0	68.53065056070564	-4.443940257999711	6.178047350742205	45.04723279078745	76.30576697004733	0	0
